<mxfile host="app.diagrams.net" modified="2023-06-14T00:27:10.081Z" agent="Mozilla/5.0 (Windows NT 10.0; Win64; x64) AppleWebKit/537.36 (KHTML, like Gecko) Chrome/114.0.0.0 Safari/537.36" version="21.2.9" etag="tIp7PajDKyoYo7pWEmDM" type="github">
  <diagram name="Page-1" id="y0wRG699sOA9Gnr6Gf6U">
    <mxGraphModel>
      <root>
        <mxCell id="0" />
        <mxCell id="1" parent="0" />
      </root>
    </mxGraphModel>
  </diagram>
</mxfile>
